HIERARCHY
ROOT Hips
{
	OFFSET 0.000000 0.000000 0.000000
	CHANNELS 6 Xposition Yposition Zposition Zrotation Yrotation Xrotation 
	JOINT LHipJoint
	{
		OFFSET 0.000000 0.000000 0.000000
		CHANNELS 3 Zrotation Yrotation Xrotation
		JOINT LeftUpLeg
		{
			OFFSET 1.363060 -1.794630 0.839290
			CHANNELS 3 Zrotation Yrotation Xrotation
			JOINT LeftLeg
			{
				OFFSET 2.448110 -6.726130 0.000000
				CHANNELS 3 Zrotation Yrotation Xrotation
				JOINT LeftFoot
				{
					OFFSET 2.562200 -7.039590 0.000000
					CHANNELS 3 Zrotation Yrotation Xrotation
					JOINT LeftToeBase
					{
						OFFSET 0.157640 -0.433110 2.322550
						CHANNELS 3 Zrotation Yrotation Xrotation
						End Site
						{
							OFFSET 0.000000 0.000000 0.000000
						}
					}
				}
			}
		}
	}
	JOINT RHipJoint
	{
		OFFSET 0.000000 0.000000 0.000000
		CHANNELS 3 Zrotation Yrotation Xrotation
		JOINT RightUpLeg
		{
			OFFSET -1.305520 -1.794630 0.839290
			CHANNELS 3 Zrotation Yrotation Xrotation
			JOINT RightLeg
			{
				OFFSET -2.542530 -6.985550 0.000000
				CHANNELS 3 Zrotation Yrotation Xrotation
				JOINT RightFoot
				{
					OFFSET -2.568260 -7.056230 0.000000
					CHANNELS 3 Zrotation Yrotation Xrotation
					JOINT RightToeBase
					{
						OFFSET -0.164730 -0.452590 2.363150
						CHANNELS 3 Zrotation Yrotation Xrotation
						End Site
						{
							OFFSET 0.000000 0.000000 0.000000
						}
					}
				}
			}
		}
	}
	JOINT LowerBack
	{
		OFFSET 0.000000 0.000000 0.000000
		CHANNELS 3 Zrotation Yrotation Xrotation
		JOINT Spine
		{
			OFFSET 0.028270 2.035590 -0.193380
			CHANNELS 3 Zrotation Yrotation Xrotation
			JOINT Spine1
			{
				OFFSET 0.056720 2.048850 -0.042750
				CHANNELS 3 Zrotation Yrotation Xrotation
				JOINT Neck
				{
					OFFSET 0.000000 0.000000 0.000000
					CHANNELS 3 Zrotation Yrotation Xrotation
					JOINT Neck1
					{
						OFFSET -0.054170 1.746240 0.172020
						CHANNELS 3 Zrotation Yrotation Xrotation
						JOINT Head
						{
							OFFSET 0.104070 1.761360 -0.123970
							CHANNELS 3 Zrotation Yrotation Xrotation
							End Site
							{
								OFFSET 0.000000 0.000000 0.000000
							}
						}
					}
				}
				JOINT LeftShoulder
				{
					OFFSET 0.000000 0.000000 0.000000
					CHANNELS 3 Zrotation Yrotation Xrotation
					JOINT LeftArm
					{
						OFFSET 3.362410 1.200890 -0.311210
						CHANNELS 3 Zrotation Yrotation Xrotation
						JOINT LeftForeArm
						{
							OFFSET 4.983000 -0.000000 -0.000000
							CHANNELS 3 Zrotation Yrotation Xrotation
							JOINT LeftHand
							{
								OFFSET 3.483560 -0.000000 -0.000000
								CHANNELS 3 Zrotation Yrotation Xrotation
								JOINT LeftFingerBase
								{
									OFFSET 0.000000 0.000000 0.000000
									CHANNELS 3 Zrotation Yrotation Xrotation
									JOINT LeftHandIndex1
									{
										OFFSET 0.715260 -0.000000 -0.000000
										CHANNELS 3 Zrotation Yrotation Xrotation
										End Site
										{
											OFFSET 0.000000 0.000000 0.000000
										}
									}
								}
								JOINT LThumb
								{
									OFFSET 0.000000 0.000000 0.000000
									CHANNELS 3 Zrotation Yrotation Xrotation
									End Site
									{
										OFFSET 0.000000 0.000000 0.000000
									}
								}
							}
						}
					}
				}
				JOINT RightShoulder
				{
					OFFSET 0.000000 0.000000 0.000000
					CHANNELS 3 Zrotation Yrotation Xrotation
					JOINT RightArm
					{
						OFFSET -3.136600 1.374050 -0.404650
						CHANNELS 3 Zrotation Yrotation Xrotation
						JOINT RightForeArm
						{
							OFFSET -5.241900 -0.000000 -0.000000
							CHANNELS 3 Zrotation Yrotation Xrotation
							JOINT RightHand
							{
								OFFSET -3.444170 -0.000000 -0.000000
								CHANNELS 3 Zrotation Yrotation Xrotation
								JOINT RightFingerBase
								{
									OFFSET 0.000000 0.000000 0.000000
									CHANNELS 3 Zrotation Yrotation Xrotation
									JOINT RightHandIndex1
									{
										OFFSET -0.622530 -0.000000 -0.000000
										CHANNELS 3 Zrotation Yrotation Xrotation
										End Site
										{
											OFFSET 0.000000 0.000000 0.000000
										}
									}
								}
								JOINT RThumb
								{
									OFFSET 0.000000 0.000000 0.000000
									CHANNELS 3 Zrotation Yrotation Xrotation
									End Site
									{
										OFFSET 0.000000 0.000000 0.000000
									}
								}
							}
						}
					}
				}
			}
		}
	}
}
MOTION
Frames: 7
Frame Time: 0.008333
9.964255 17.846929 49.916875 -178.046368 -10.768108 -179.640343 -1.349966 3.070187 1.469149 -17.261157 -25.521958 -4.036547 -2.062735 8.714990 24.776624 -1.882463 7.920805 -2.253608 1.422900 -7.543400 -21.335600 -2.896291 -3.071297 1.148220 23.809337 9.373063 -6.600122 1.551066 -9.079004 27.886627 6.266570 -23.147367 -19.304554 -0.335100 -3.719900 10.290000 4.201869 2.348839 1.514538 0.865380 3.220996 9.095929 -5.113525 1.487905 -6.919607 6.698505 17.347844 -7.773210 2.952186 22.251986 1.353566 -2.486700 10.799600 1.965700 -1.648355 -11.397408 1.386869 -86.685577 1.397883 39.054670 24.751077 -24.907235 -7.202035 1.721488 0.993645 10.457645 3.559165 -35.630513 -1.253100 -7.125000 0.000000 0.000000 -16.796200 -5.647900 19.174000 0.137920 11.389966 2.315102 86.923740 -2.413550 46.971665 -21.239331 24.247486 -6.212018 1.296708 0.451180 12.314828 -11.696230 -53.103934 10.398800 7.125000 0.000000 0.000000 68.466700 -76.199100 -54.733300 
9.970510 17.846575 49.922540 -178.284666 -10.797144 -179.797234 -1.360436 3.106547 1.508276 -17.534544 -25.457037 -3.790651 -2.104864 8.646616 24.602090 -1.898547 7.951220 -2.206958 1.484700 -7.698200 -21.801100 -2.899426 -3.089066 1.159961 23.655590 9.618137 -6.433012 1.509605 -9.141639 28.128568 6.184919 -23.047532 -19.704267 -0.382700 -3.972700 11.000000 3.853808 2.316751 1.855211 0.829191 3.188915 9.160688 -4.942901 1.483842 -7.136450 6.701544 17.346351 -7.839727 3.010594 22.259727 1.526681 -2.454600 10.818200 2.022900 -1.647921 -11.359552 1.378332 -86.730587 1.456013 39.061570 24.682804 -24.834251 -7.176922 1.688958 1.030099 11.118188 5.006135 -36.007039 -2.180600 -7.125000 0.000000 0.000000 -16.043000 -6.234000 18.390300 0.139797 11.401473 2.315514 86.869796 -2.409808 47.012913 -21.206955 24.215985 -6.193484 1.297701 0.443989 12.599454 -11.409673 -53.015068 10.153200 7.125000 0.000000 0.000000 68.247900 -76.067500 -54.388200 
9.968858 17.845277 49.941660 -178.533474 -10.264437 -179.741964 -1.381653 3.091811 1.501559 -17.795707 -25.369444 -3.795496 -2.132929 8.634483 24.537943 -2.078105 8.382370 -2.475835 1.496500 -7.727400 -21.889100 -2.897349 -3.072112 1.140166 23.338532 9.968057 -6.521280 1.503075 -9.162470 28.132281 6.286204 -23.230825 -19.539246 -0.360900 -3.859500 10.681700 3.707387 2.462525 2.247885 0.646908 3.407925 9.046551 -4.933102 1.589685 -7.399389 6.761483 17.448182 -7.697016 2.989135 22.392663 1.488903 -2.476800 10.882200 2.000600 -1.640770 -11.342982 1.380689 -86.732129 1.439535 38.962689 24.795110 -24.976193 -7.239496 1.710888 1.006828 10.628512 3.850081 -35.998181 -1.451700 -7.125000 0.000000 0.000000 -16.654800 -6.050400 19.104000 0.153896 11.395177 2.319654 86.862364 -2.414748 47.082185 -21.201544 24.222782 -6.199028 1.289342 0.458628 12.622297 -10.452984 -53.241852 9.394300 7.125000 0.000000 0.000000 69.635000 -75.765900 -55.341900 
9.966970 17.846929 49.924901 -178.447247 -10.752955 -179.708643 -1.391051 3.104735 1.506140 -17.674665 -25.507106 -3.727005 -2.146911 8.584544 24.419175 -1.921172 8.003876 -2.224250 1.508600 -7.757200 -21.979100 -2.900485 -3.081062 1.151417 23.462008 9.724197 -6.559831 1.494119 -9.193230 28.246863 6.290554 -23.408357 -20.013177 -0.384000 -3.979700 11.019500 3.779001 2.324642 1.883949 0.666633 3.203351 9.140639 -4.930923 1.490459 -7.160343 6.718021 17.448705 -7.775618 3.095664 22.376575 1.442718 -2.431100 10.869900 1.978600 -1.634738 -11.370945 1.385398 -86.688255 1.419090 39.029282 24.678314 -24.835915 -7.181422 1.681011 1.042620 11.102892 5.263829 -36.230511 -2.356700 -7.125000 0.000000 0.000000 -15.918400 -6.492400 18.300000 0.150620 11.391225 2.311935 86.892353 -2.370498 47.079995 -21.178498 24.190384 -6.188983 1.293183 0.456288 12.596869 -10.652448 -53.202006 9.555400 7.125000 0.000000 0.000000 69.376900 -75.831500 -55.174500 
9.964963 17.846575 49.923720 -178.519855 -10.764480 -179.737778 -1.399907 3.117718 1.520321 -17.768992 -25.501603 -3.639604 -2.158538 8.562565 24.365772 -1.881408 7.908036 -2.181312 1.554300 -7.868400 -22.315000 -2.907468 -3.088133 1.153555 23.379839 9.620173 -6.583167 1.468115 -9.215979 28.330128 6.270106 -23.320800 -19.932535 -0.378200 -3.949700 10.935200 3.755753 2.327871 1.900153 0.563641 3.212655 9.190680 -4.932622 1.492946 -7.148544 6.952537 17.466947 -7.644751 2.915656 22.413752 1.360161 -2.526800 10.882200 1.982000 -1.622664 -11.364901 1.381442 -86.631710 1.341330 38.962552 24.734503 -24.910593 -7.212038 1.725773 1.004540 10.547330 3.556618 -36.085147 -1.265600 -7.125000 0.000000 0.000000 -16.817800 -6.096200 19.319700 0.149124 11.400217 2.306841 86.948415 -2.316691 47.011729 -21.167407 24.190273 -6.196868 1.285673 0.473070 12.501981 -9.941334 -53.523507 9.006000 7.125000 0.000000 0.000000 70.987400 -75.642900 -56.465500 
9.962721 17.846103 49.921596 -178.639579 -10.753149 -179.718363 -1.406027 3.115847 1.520770 -17.910756 -25.471196 -3.616964 -2.161723 8.567268 24.372881 -1.918726 7.997232 -2.252864 1.570800 -7.908100 -22.435300 -2.907613 -3.094259 1.157762 23.219898 9.488766 -6.638963 1.458058 -9.207370 28.309495 6.274079 -23.234062 -19.696007 -0.348600 -3.793500 10.496600 3.660313 2.347763 1.902180 0.493206 3.237095 9.199438 -4.896067 1.508595 -7.151029 7.015942 17.425204 -7.637366 2.894111 22.360663 1.368592 -2.544400 10.856900 1.989000 -1.625701 -11.357344 1.381513 -86.619745 1.335672 39.199626 24.506783 -24.651263 -7.109348 1.670677 1.071479 11.451275 6.088719 -36.615257 -2.906500 -7.125000 0.000000 0.000000 -15.508600 -7.007600 17.916200 0.154003 11.405609 2.303037 86.952889 -2.316325 46.951165 -21.210245 24.230856 -6.197141 1.289756 0.464309 12.449952 -10.231824 -53.089851 9.197900 7.125000 0.000000 0.000000 69.164600 -75.646000 -54.774100 
9.962367 17.845631 49.924428 -178.662422 -10.673108 -179.714482 -1.402941 3.110934 1.518631 -17.936061 -25.440503 -3.643880 -2.159916 8.577139 24.395189 -1.949075 8.071776 -2.332699 1.519800 -7.784800 -22.062300 -2.904592 -3.090689 1.156326 23.184072 9.506739 -6.657252 1.455839 -9.207190 28.303099 6.269894 -23.189292 -19.602517 -0.326100 -3.670400 10.151200 3.602802 2.370172 1.977290 0.529797 3.267861 9.194019 -4.869691 1.526569 -7.201781 7.032328 17.425076 -7.587626 2.850114 22.368055 1.396628 -2.562700 10.863800 2.000500 -1.640606 -11.353740 1.373694 -86.715253 1.262742 39.109774 24.391248 -24.517673 -7.050452 1.659975 1.087530 11.881271 6.825197 -36.675424 -3.385900 -7.125000 0.000000 0.000000 -15.124700 -7.192500 17.483600 0.156714 11.413283 2.304070 86.882998 -2.316759 47.107178 -21.180255 24.177660 -6.158223 1.302137 0.442654 12.323715 -11.311325 -52.393417 9.999700 7.125000 0.000000 0.000000 65.869100 -75.855700 -51.979500 
